<?xml version="1.0" encoding="UTF-8"?><svg xmlns:svg="http://www.w3.org/2000/svg" xmlns="http://www.w3.org/2000/svg" xmlns:xlink="http://www.w3.org/1999/xlink" version="1.0" width="681" height="206" viewBox="0 0 681 206" >
<!-- cimmeria-bg-injected --><style>.cimmeria-bg{fill:transparent}@media(prefers-color-scheme:dark){.cimmeria-bg{fill:white}}</style><rect class="cimmeria-bg" width="100%" height="100%"/><text x="60" y="8" font-family="Courier New, monospace" font-size="11" dominant-baseline="middle" text-anchor="middle" >0</text><text x="100" y="8" font-family="Courier New, monospace" font-size="11" dominant-baseline="middle" text-anchor="middle" >1</text><text x="140" y="8" font-family="Courier New, monospace" font-size="11" dominant-baseline="middle" text-anchor="middle" >2</text><text x="180" y="8" font-family="Courier New, monospace" font-size="11" dominant-baseline="middle" text-anchor="middle" >3</text><text x="220" y="8" font-family="Courier New, monospace" font-size="11" dominant-baseline="middle" text-anchor="middle" >4</text><text x="260" y="8" font-family="Courier New, monospace" font-size="11" dominant-baseline="middle" text-anchor="middle" >5</text><text x="300" y="8" font-family="Courier New, monospace" font-size="11" dominant-baseline="middle" text-anchor="middle" >6</text><text x="340" y="8" font-family="Courier New, monospace" font-size="11" dominant-baseline="middle" text-anchor="middle" >7</text><text x="380" y="8" font-family="Courier New, monospace" font-size="11" dominant-baseline="middle" text-anchor="middle" >8</text><text x="420" y="8" font-family="Courier New, monospace" font-size="11" dominant-baseline="middle" text-anchor="middle" >9</text><text x="460" y="8" font-family="Courier New, monospace" font-size="11" dominant-baseline="middle" text-anchor="middle" >a</text><text x="500" y="8" font-family="Courier New, monospace" font-size="11" dominant-baseline="middle" text-anchor="middle" >b</text><text x="540" y="8" font-family="Courier New, monospace" font-size="11" dominant-baseline="middle" text-anchor="middle" >c</text><text x="580" y="8" font-family="Courier New, monospace" font-size="11" dominant-baseline="middle" text-anchor="middle" >d</text><text x="620" y="8" font-family="Courier New, monospace" font-size="11" dominant-baseline="middle" text-anchor="middle" >e</text><text x="660" y="8" font-family="Courier New, monospace" font-size="11" dominant-baseline="middle" text-anchor="middle" >f</text><rect x="40" y="15" height="30" width="40" fill="#bdd7ee" /><text font-size="14" x="60" y="31" text-anchor="middle" dominant-baseline="middle" >flags</text><line x1="80" y1="15" x2="680" y2="15" stroke="#000000" stroke-width="1" /><line x1="80" y1="45" x2="680" y2="45" stroke="#000000" stroke-width="1" /><line x1="680" y1="15" x2="680" y2="45" stroke="#000000" stroke-width="1" /><line x1="80" y1="15" x2="80" y2="45" stroke="#000000" stroke-width="1" /><text font-size="14" x="380" y="31" text-anchor="middle" dominant-baseline="middle" >body  (variable length — 0 to MAX_BODY=1348 bytes)</text><text font-size="11" font-family="Courier New, monospace" font-style="normal" dominant-baseline="middle" x="35" y="30" text-anchor="end" >00</text><text font-size="11" font-family="Courier New, monospace" font-style="normal" dominant-baseline="middle" x="35" y="60" text-anchor="end" >10</text><line x1="40" y1="45" x2="40" y2="60" stroke="#000000" stroke-width="1" /><line x1="680" y1="45" x2="680" y2="90" stroke="#000000" stroke-width="1" /><line stroke-dasharray="1,1" x1="40" y1="60" x2="680" y2="90" stroke="#000000" stroke-width="1" /><line x1="40" y1="70" x2="40" y2="115" stroke="#000000" stroke-width="1" /><line x1="680" y1="100" x2="680" y2="115" stroke="#000000" stroke-width="1" /><line stroke-dasharray="1,1" x1="40" y1="70" x2="680" y2="100" stroke="#000000" stroke-width="1" /><text font-size="11" font-family="Palatino, Georgia, Times New Roman, serif" font-style="italic" dominant-baseline="middle" x="35" y="130" text-anchor="end" >i+<tspan font-size="11" font-family="Courier New, monospace" font-style="normal" dominant-baseline="middle" >00</tspan></text><line x1="40" y1="115" x2="680" y2="115" stroke="#000000" stroke-width="1" /><rect x="40" y="115" height="30" width="80" fill="#fff4d6" /><line x1="40" y1="115" x2="120" y2="115" stroke="#000000" stroke-width="1" /><line x1="40" y1="145" x2="120" y2="145" stroke="#000000" stroke-width="1" /><line x1="120" y1="115" x2="120" y2="145" stroke="#000000" stroke-width="1" /><line x1="40" y1="115" x2="40" y2="145" stroke="#000000" stroke-width="1" /><text font-size="11" fill="#cc9933" x="80" y="131" text-anchor="middle" dominant-baseline="middle" >first_req_offset [u16 LE]  if ON_CHANNEL</text><rect x="120" y="115" height="30" width="160" fill="#ffeedd" /><line x1="120" y1="115" x2="280" y2="115" stroke="#000000" stroke-width="1" /><line x1="120" y1="145" x2="280" y2="145" stroke="#000000" stroke-width="1" /><line x1="280" y1="115" x2="280" y2="145" stroke="#000000" stroke-width="1" /><line x1="120" y1="115" x2="120" y2="145" stroke="#000000" stroke-width="1" /><text font-size="11" fill="#cc9933" x="200" y="131" text-anchor="middle" dominant-baseline="middle" >frag_begin [u32 LE]  if FRAGMENTED</text><rect x="280" y="115" height="30" width="160" fill="#ffeedd" /><line x1="280" y1="115" x2="440" y2="115" stroke="#000000" stroke-width="1" /><line x1="280" y1="145" x2="440" y2="145" stroke="#000000" stroke-width="1" /><line x1="440" y1="115" x2="440" y2="145" stroke="#000000" stroke-width="1" /><line x1="280" y1="115" x2="280" y2="145" stroke="#000000" stroke-width="1" /><text font-size="11" fill="#cc9933" x="360" y="131" text-anchor="middle" dominant-baseline="middle" >frag_end [u32 LE]  if FRAGMENTED</text><rect x="440" y="115" height="30" width="160" fill="#ddffdd" /><line x1="440" y1="115" x2="600" y2="115" stroke="#000000" stroke-width="1" /><line x1="440" y1="145" x2="600" y2="145" stroke="#000000" stroke-width="1" /><line x1="600" y1="115" x2="600" y2="145" stroke="#000000" stroke-width="1" /><line x1="440" y1="115" x2="440" y2="145" stroke="#000000" stroke-width="1" /><text font-size="11" fill="#cc9933" x="520" y="131" text-anchor="middle" dominant-baseline="middle" >seq_id [u32 LE]  if RELIABLE or FRAGMENTED</text><rect x="40" y="145" height="30" width="160" fill="#ffffdd" /><line x1="40" y1="145" x2="200" y2="145" stroke="#000000" stroke-width="1" /><line x1="40" y1="175" x2="200" y2="175" stroke="#000000" stroke-width="1" /><line x1="200" y1="145" x2="200" y2="175" stroke="#000000" stroke-width="1" /><line x1="40" y1="145" x2="40" y2="175" stroke="#000000" stroke-width="1" /><text font-size="11" fill="#cc9933" x="120" y="161" text-anchor="middle" dominant-baseline="middle" >ack[0] [u32 LE]</text><rect x="200" y="145" height="30" width="160" fill="#ffffdd" /><line x1="200" y1="145" x2="360" y2="145" stroke="#000000" stroke-width="1" /><line x1="200" y1="175" x2="360" y2="175" stroke="#000000" stroke-width="1" /><line x1="360" y1="145" x2="360" y2="175" stroke="#000000" stroke-width="1" /><line x1="200" y1="145" x2="200" y2="175" stroke="#000000" stroke-width="1" /><text font-size="11" fill="#cc9933" x="280" y="161" text-anchor="middle" dominant-baseline="middle" >ack[1] [u32 LE]</text><rect x="360" y="145" height="30" width="160" fill="#ffffdd" /><line x1="360" y1="145" x2="520" y2="145" stroke="#000000" stroke-width="1" /><line x1="360" y1="175" x2="520" y2="175" stroke="#000000" stroke-width="1" /><line x1="520" y1="145" x2="520" y2="175" stroke="#000000" stroke-width="1" /><line x1="360" y1="145" x2="360" y2="175" stroke="#000000" stroke-width="1" /><text font-size="11" fill="#cc9933" x="440" y="161" text-anchor="middle" dominant-baseline="middle" >ack[2] [u32 LE]</text><rect x="520" y="145" height="30" width="120" fill="#ffffdd" /><line x1="520" y1="145" x2="640" y2="145" stroke="#000000" stroke-width="1" /><line x1="520" y1="175" x2="640" y2="175" stroke="#000000" stroke-width="1" /><line x1="640" y1="145" x2="640" y2="175" stroke="#000000" stroke-width="1" /><line x1="520" y1="145" x2="520" y2="175" stroke="#000000" stroke-width="1" /><text font-size="11" fill="#cc9933" x="580" y="161" text-anchor="middle" dominant-baseline="middle" >ack[3] [u32 LE]</text><line x1="640" y1="145" x2="680" y2="145" stroke="#000000" stroke-width="1" /><line x1="640" y1="175" x2="680" y2="175" stroke="#000000" stroke-width="1" /><line x1="680" y1="145" x2="680" y2="175" stroke="#000000" stroke-width="1" /><line x1="640" y1="145" x2="640" y2="175" stroke="#000000" stroke-width="1" /><text font-size="14" x="660" y="161" text-anchor="middle" dominant-baseline="middle" >...</text><rect x="40" y="175" height="30" width="600" fill="#ffffdd" /><line x1="40" y1="175" x2="640" y2="175" stroke="#000000" stroke-width="1" /><line x1="40" y1="205" x2="640" y2="205" stroke="#000000" stroke-width="1" /><line x1="640" y1="175" x2="640" y2="205" stroke="#000000" stroke-width="1" /><line x1="40" y1="175" x2="40" y2="205" stroke="#000000" stroke-width="1" /><text font-size="11" fill="#cc9933" x="340" y="191" text-anchor="middle" dominant-baseline="middle" >ack[N-1] [u32 LE]  (up to RX_WINDOW=64 acks)</text><rect x="640" y="175" height="30" width="40" fill="#ffddff" /><line x1="640" y1="175" x2="680" y2="175" stroke="#000000" stroke-width="1" /><line x1="640" y1="205" x2="680" y2="205" stroke="#000000" stroke-width="1" /><line x1="680" y1="175" x2="680" y2="205" stroke="#000000" stroke-width="1" /><line x1="640" y1="175" x2="640" y2="205" stroke="#000000" stroke-width="1" /><text font-size="14" x="660" y="191" text-anchor="middle" dominant-baseline="middle" >K</text></svg>