<?xml version="1.0" encoding="UTF-8" standalone="no"?>
<!DOCTYPE svg PUBLIC "-//W3C//DTD SVG 1.1//EN"
 "http://www.w3.org/Graphics/SVG/1.1/DTD/svg11.dtd">
<!-- Generated by graphviz version 9.0.0 (20230911.1827)
 -->
<!-- Title: mercury_nub_recv_pipeline Pages: 1 -->
<svg width="404pt" height="747pt"
 viewBox="0.00 0.00 404.25 747.06" xmlns="http://www.w3.org/2000/svg" xmlns:xlink="http://www.w3.org/1999/xlink">
<!-- cimmeria-bg-injected --><style>.cimmeria-bg{fill:transparent}@media(prefers-color-scheme:dark){.cimmeria-bg{fill:white}}</style><rect class="cimmeria-bg" width="100%" height="100%"/>
<g id="graph0" class="graph" transform="scale(1 1) rotate(0) translate(4 743.06)">
<title>mercury_nub_recv_pipeline</title>
<polygon class="cimmeria-bg" stroke="none" points="-4,4 -4,-743.06 400.25,-743.06 400.25,4 -4,4"/>
<text text-anchor="middle" x="198.12" y="-722.71" font-family="Helvetica,sans-Serif" font-size="13.00">Mercury Nub — receive&#45;side function&#45;call pipeline (§1.12)</text>
<!-- recvfrom -->
<g id="node1" class="node">
<title>recvfrom</title>
<path fill="#ffe599" stroke="black" d="M239.12,-714.56C239.12,-714.56 157.12,-714.56 157.12,-714.56 151.12,-714.56 145.12,-708.56 145.12,-702.56 145.12,-702.56 145.12,-690.56 145.12,-690.56 145.12,-684.56 151.12,-678.56 157.12,-678.56 157.12,-678.56 239.12,-678.56 239.12,-678.56 245.12,-678.56 251.12,-684.56 251.12,-690.56 251.12,-690.56 251.12,-702.56 251.12,-702.56 251.12,-708.56 245.12,-714.56 239.12,-714.56"/>
<text text-anchor="middle" x="198.12" y="-699.81" font-family="Helvetica,sans-Serif" font-size="10.00">recvfrom()</text>
<text text-anchor="middle" x="198.12" y="-687.06" font-family="Helvetica,sans-Serif" font-size="10.00">blocking UDP read</text>
</g>
<!-- pending -->
<g id="node2" class="node">
<title>pending</title>
<path fill="#bdd7ee" stroke="black" d="M270.25,-641.56C270.25,-641.56 126,-641.56 126,-641.56 120,-641.56 114,-635.56 114,-629.56 114,-629.56 114,-617.56 114,-617.56 114,-611.56 120,-605.56 126,-605.56 126,-605.56 270.25,-605.56 270.25,-605.56 276.25,-605.56 282.25,-611.56 282.25,-617.56 282.25,-617.56 282.25,-629.56 282.25,-629.56 282.25,-635.56 276.25,-641.56 270.25,-641.56"/>
<text text-anchor="middle" x="198.12" y="-626.81" font-family="Helvetica,sans-Serif" font-size="10.00">processPendingEvents</text>
<text text-anchor="middle" x="198.12" y="-614.06" font-family="Helvetica,sans-Serif" font-size="10.00">ghidra://SGW.exe@0x01581ab0</text>
</g>
<!-- recvfrom&#45;&gt;pending -->
<g id="edge1" class="edge">
<title>recvfrom&#45;&gt;pending</title>
<path fill="none" stroke="#666666" d="M198.12,-678.38C198.12,-670.18 198.12,-660.19 198.12,-651.05"/>
<polygon fill="#666666" stroke="#666666" points="200.93,-651.1 198.13,-643.1 195.33,-651.1 200.93,-651.1"/>
</g>
<!-- queue -->
<g id="node3" class="node">
<title>queue</title>
<path fill="#fff4d6" stroke="black" d="M265.75,-554.12C265.75,-556.44 235.44,-558.31 198.12,-558.31 160.81,-558.31 130.5,-556.44 130.5,-554.12 130.5,-554.12 130.5,-516.44 130.5,-516.44 130.5,-514.13 160.81,-512.25 198.12,-512.25 235.44,-512.25 265.75,-514.13 265.75,-516.44 265.75,-516.44 265.75,-554.12 265.75,-554.12"/>
<path fill="none" stroke="black" d="M265.75,-554.12C265.75,-551.81 235.44,-549.94 198.12,-549.94 160.81,-549.94 130.5,-551.81 130.5,-554.12"/>
<text text-anchor="middle" x="198.12" y="-538.53" font-family="Helvetica,sans-Serif" font-size="10.00">tbb::concurrent_queue</text>
<text text-anchor="middle" x="198.12" y="-525.78" font-family="Helvetica,sans-Serif" font-size="10.00">inbound ClientMessage*</text>
</g>
<!-- pending&#45;&gt;queue -->
<g id="edge2" class="edge">
<title>pending&#45;&gt;queue</title>
<path fill="none" stroke="#666666" d="M198.12,-605.1C198.12,-594.43 198.12,-580.46 198.12,-567.9"/>
<polygon fill="#666666" stroke="#666666" points="200.93,-568.15 198.13,-560.15 195.33,-568.15 200.93,-568.15"/>
<text text-anchor="middle" x="244.25" y="-579.01" font-family="Times,serif" font-size="9.00">enqueue per packet</text>
</g>
<!-- drain -->
<g id="node4" class="node">
<title>drain</title>
<path fill="#bdd7ee" stroke="black" d="M257.5,-465C257.5,-465 138.75,-465 138.75,-465 132.75,-465 126.75,-459 126.75,-453 126.75,-453 126.75,-441 126.75,-441 126.75,-435 132.75,-429 138.75,-429 138.75,-429 257.5,-429 257.5,-429 263.5,-429 269.5,-435 269.5,-441 269.5,-441 269.5,-453 269.5,-453 269.5,-459 263.5,-465 257.5,-465"/>
<text text-anchor="middle" x="198.12" y="-450.25" font-family="Helvetica,sans-Serif" font-size="10.00">network&#45;thread drain loop</text>
<text text-anchor="middle" x="198.12" y="-437.5" font-family="Helvetica,sans-Serif" font-size="10.00">(second thread)</text>
</g>
<!-- queue&#45;&gt;drain -->
<g id="edge3" class="edge">
<title>queue&#45;&gt;drain</title>
<path fill="none" stroke="#666666" d="M198.12,-512.06C198.12,-500.67 198.12,-486.71 198.12,-474.74"/>
<polygon fill="#666666" stroke="#666666" points="200.93,-474.76 198.13,-466.76 195.33,-474.76 200.93,-474.76"/>
<text text-anchor="middle" x="218" y="-485.7" font-family="Times,serif" font-size="9.00">dequeue</text>
</g>
<!-- filtered -->
<g id="node5" class="node">
<title>filtered</title>
<path fill="#ddffdd" stroke="black" d="M320.5,-392C320.5,-392 75.75,-392 75.75,-392 69.75,-392 63.75,-386 63.75,-380 63.75,-380 63.75,-357.75 63.75,-357.75 63.75,-351.75 69.75,-345.75 75.75,-345.75 75.75,-345.75 320.5,-345.75 320.5,-345.75 326.5,-345.75 332.5,-351.75 332.5,-357.75 332.5,-357.75 332.5,-380 332.5,-380 332.5,-386 326.5,-392 320.5,-392"/>
<text text-anchor="middle" x="198.12" y="-378.5" font-family="Helvetica,sans-Serif" font-size="10.00">processFilteredPacket</text>
<text text-anchor="middle" x="198.12" y="-365.75" font-family="Helvetica,sans-Serif" font-size="10.00">(cipher&#45;envelope filter applies here)</text>
<text text-anchor="middle" x="198.12" y="-353" font-family="Helvetica,sans-Serif" font-size="10.00">PacketEncrypter::recv → AES decrypt + HMAC verify</text>
</g>
<!-- drain&#45;&gt;filtered -->
<g id="edge4" class="edge">
<title>drain&#45;&gt;filtered</title>
<path fill="none" stroke="#666666" d="M198.12,-428.73C198.12,-420.72 198.12,-410.94 198.12,-401.67"/>
<polygon fill="#666666" stroke="#666666" points="200.93,-401.8 198.13,-393.8 195.33,-401.8 200.93,-401.8"/>
</g>
<!-- inner -->
<g id="node6" class="node">
<title>inner</title>
<path fill="#ddffdd" stroke="black" d="M271,-308.75C271,-308.75 125.25,-308.75 125.25,-308.75 119.25,-308.75 113.25,-302.75 113.25,-296.75 113.25,-296.75 113.25,-274.5 113.25,-274.5 113.25,-268.5 119.25,-262.5 125.25,-262.5 125.25,-262.5 271,-262.5 271,-262.5 277,-262.5 283,-268.5 283,-274.5 283,-274.5 283,-296.75 283,-296.75 283,-302.75 277,-308.75 271,-308.75"/>
<text text-anchor="middle" x="198.12" y="-295.25" font-family="Helvetica,sans-Serif" font-size="10.00">processFilteredPacket_inner</text>
<text text-anchor="middle" x="198.12" y="-282.5" font-family="Helvetica,sans-Serif" font-size="10.00">ghidra://SGW.exe@0x01580840</text>
<text text-anchor="middle" x="198.12" y="-269.75" font-family="Helvetica,sans-Serif" font-size="10.00">flags byte decode + footer peel</text>
</g>
<!-- filtered&#45;&gt;inner -->
<g id="edge5" class="edge">
<title>filtered&#45;&gt;inner</title>
<path fill="none" stroke="#666666" d="M198.12,-345.67C198.12,-337.32 198.12,-327.66 198.12,-318.59"/>
<polygon fill="#666666" stroke="#666666" points="200.93,-318.6 198.13,-310.6 195.33,-318.6 200.93,-318.6"/>
</g>
<!-- ordered -->
<g id="node7" class="node">
<title>ordered</title>
<path fill="#ffeedd" stroke="black" d="M297.62,-225.5C297.62,-225.5 98.62,-225.5 98.62,-225.5 92.62,-225.5 86.62,-219.5 86.62,-213.5 86.62,-213.5 86.62,-191.25 86.62,-191.25 86.62,-185.25 92.62,-179.25 98.62,-179.25 98.62,-179.25 297.62,-179.25 297.62,-179.25 303.62,-179.25 309.62,-185.25 309.62,-191.25 309.62,-191.25 309.62,-213.5 309.62,-213.5 309.62,-219.5 303.62,-225.5 297.62,-225.5"/>
<text text-anchor="middle" x="198.12" y="-212" font-family="Helvetica,sans-Serif" font-size="10.00">processPacket / processOrderedPacket</text>
<text text-anchor="middle" x="198.12" y="-199.25" font-family="Helvetica,sans-Serif" font-size="10.00">ghidra://SGW.exe@0x0157c820</text>
<text text-anchor="middle" x="198.12" y="-186.5" font-family="Helvetica,sans-Serif" font-size="10.00">fragment reassembly + dedup hash check</text>
</g>
<!-- inner&#45;&gt;ordered -->
<g id="edge6" class="edge">
<title>inner&#45;&gt;ordered</title>
<path fill="none" stroke="#666666" d="M198.12,-262.42C198.12,-254.07 198.12,-244.41 198.12,-235.34"/>
<polygon fill="#666666" stroke="#666666" points="200.93,-235.35 198.13,-227.35 195.33,-235.35 200.93,-235.35"/>
</g>
<!-- dispatch -->
<g id="node8" class="node">
<title>dispatch</title>
<path fill="#ffcc99" stroke="black" d="M272.12,-132C272.12,-132 124.12,-132 124.12,-132 118.12,-132 112.12,-126 112.12,-120 112.12,-120 112.12,-108 112.12,-108 112.12,-102 118.12,-96 124.12,-96 124.12,-96 272.12,-96 272.12,-96 278.12,-96 284.12,-102 284.12,-108 284.12,-108 284.12,-120 284.12,-120 284.12,-126 278.12,-132 272.12,-132"/>
<text text-anchor="middle" x="198.12" y="-117.25" font-family="Helvetica,sans-Serif" font-size="10.00">nub&#45;&gt;elements[msg_id]</text>
<text text-anchor="middle" x="198.12" y="-104.5" font-family="Helvetica,sans-Serif" font-size="10.00">InterfaceElement dispatch table</text>
</g>
<!-- ordered&#45;&gt;dispatch -->
<g id="edge7" class="edge">
<title>ordered&#45;&gt;dispatch</title>
<path fill="none" stroke="#666666" d="M198.12,-179.13C198.12,-167.73 198.12,-153.76 198.12,-141.77"/>
<polygon fill="#666666" stroke="#666666" points="200.93,-141.78 198.13,-133.78 195.33,-141.78 200.93,-141.78"/>
<text text-anchor="middle" x="225.88" y="-152.7" font-family="Times,serif" font-size="9.00">msg_id byte</text>
</g>
<!-- handler -->
<g id="node9" class="node">
<title>handler</title>
<path fill="#f4cccc" stroke="black" d="M294.62,-59C294.62,-59 101.62,-59 101.62,-59 95.62,-59 89.62,-53 89.62,-47 89.62,-47 89.62,-12 89.62,-12 89.62,-6 95.62,0 101.62,0 101.62,0 294.62,0 294.62,0 300.62,0 306.62,-6 306.62,-12 306.62,-12 306.62,-47 306.62,-47 306.62,-53 300.62,-59 294.62,-59"/>
<text text-anchor="middle" x="198.12" y="-45.5" font-family="Helvetica,sans-Serif" font-size="10.00">handler&#45;&gt;handleMessage(msg)</text>
<text text-anchor="middle" x="198.12" y="-32.75" font-family="Helvetica,sans-Serif" font-size="10.00">e.g. ServerConnection_resourceFragment</text>
<text text-anchor="middle" x="198.12" y="-20" font-family="Helvetica,sans-Serif" font-size="10.00"> &#160;&#160;&#160;&#160;&#160;ServerConnection_CreateBasePlayer</text>
<text text-anchor="middle" x="198.12" y="-7.25" font-family="Helvetica,sans-Serif" font-size="10.00"> &#160;&#160;&#160;&#160;&#160;ProcessForcedEntityPosition</text>
</g>
<!-- dispatch&#45;&gt;handler -->
<g id="edge8" class="edge">
<title>dispatch&#45;&gt;handler</title>
<path fill="none" stroke="#666666" d="M198.12,-95.5C198.12,-87.63 198.12,-78 198.12,-68.59"/>
<polygon fill="#666666" stroke="#666666" points="200.93,-68.85 198.13,-60.85 195.33,-68.85 200.93,-68.85"/>
</g>
</g>
</svg>
